<?xml version="1.0" standalone="no"?><!DOCTYPE svg PUBLIC "-//W3C//DTD SVG 1.1//EN" "http://www.w3.org/Graphics/SVG/1.1/DTD/svg11.dtd"><svg t="1514514871345" class="icon" style="" viewBox="0 0 1024 1024" version="1.1" xmlns="http://www.w3.org/2000/svg" p-id="6109" xmlns:xlink="http://www.w3.org/1999/xlink" width="200" height="200"><defs><style type="text/css"></style></defs><path d="M426.666667 682.666667a42.666667 42.666667 0 1 0-85.333334 0H256a128 128 0 0 1 256 0h-85.333333zM853.333333 256v554.666667H128V256h725.333333zM213.333333 341.333333v384h554.666667V341.333333H213.333333z m512 85.333334v85.333333h-170.666666v-85.333333h170.666666z m-42.666666 128v85.333333h-128v-85.333333h128z m-298.666667 0a85.333333 85.333333 0 1 1 0-170.666667 85.333333 85.333333 0 0 1 0 170.666667z" fill="#444444" p-id="6110"></path></svg>